<svg id="Layer_1" data-name="Layer 1" xmlns="http://www.w3.org/2000/svg" viewBox="0 0 945.08 129.12"><defs><style>.cls-1{fill:#fff;}</style></defs><title>cds</title><path class="cls-1" d="M946.44,93.91v36.58H1.36V1.38H946.44V92.69l-7-.5c.47-14.85-3.36-30.12,2.87-45l-5,4.09-7.39-7.8-11.16,10L911.21,43,898.89,53.55c7.12,1.25,7.14,1.25,7.16,6.87,0,7.11.29,14.23-.09,21.32-.25,4.74-1.43,9.44-2.41,15.49l7.93,7.37,8.26-7.51c-1-5.08-2.13-8.83-2.35-12.64-.35-6.27.28-12.61-.2-18.87-.45-5.88,1.86-9.59,8.14-12.66.9,3,2.31,5.67,2.39,8.37.29,9.74.2,19.49.12,29.24-.05,5.69,2.1,10.18,6.91,13.92Zm-148-79.2c-8.11,7.85-17.69,16.44-19.31,30.37-.15,1.31-1.67,2.64-2.85,3.61-6.39,5.25-8.29,12-6.16,19.69,2.19,7.91,8.47,11.35,16,11.91,6,.44,12.16-.18,18.22-.61,4.85-.35,9.67-1.48,14.51-1.6s7,2.89,5.81,7A11.64,11.64,0,0,1,809,92.92c-9.15-3.55-18.45-6.61-28.46-5.13-9,1.34-14.35,7.9-13.31,15.91s8.13,12.9,17.2,11.27c4.71-.84,9.73-2.22,13.64-4.82,5.63-3.74,10.22-3.2,15.42.26,1.65,1.1,4.72,2.25,5.92,1.48,14.06-9.07,26.92-19.44,30.2-37.16,3.11-16.74-7.22-29.9-24.3-30.95-6.64-.41-13.36.59-20.05.84-3.83.14-8,1-11.42-.22-2.58-.89-5.32-4.21-6-6.95-1-4,1.81-7.47,5.88-7.74,3.82-.25,8.32.19,11.55,2,9.49,5.41,19.31,5.89,29.5,3.57,11.45-2.6,17.2-10.95,20.75-21.75-7.28,8.55-16.69,11.21-26.92,9.28C818.93,21,809.54,17.76,798.48,14.71Zm-244.54,19c-.32,12.92-1,25.85-.83,38.77.18,12.18-4.36,21.8-13.82,29.05-5,3.81-10.49,6.91-15.78,10.3-1.64,1-3.35,2-5,3,3,0,5.32-1,7.7-2,10.6-4.44,21.74-6.79,32.66-2.77,7.83,2.87,14,1.81,20.22-2.83a13.92,13.92,0,0,1,3.71-2.09c9.38-3.16,12.92-10.07,14.45-19.49,2.83-17.45,2.48-34.41-4.37-50.88-4.28-10.3-12-16.32-23.3-16.82a211.08,211.08,0,0,0-23.73.26c-10.08.7-19.91,1.37-27.16-9C517,31.44,530.91,33.77,549,32.47c-13,10-13.77,22.21-13.94,34.42-9.65.08-14.86,5-15,12.36,2.88-.49,7.32-2.5,8.74-1.2,2.46,2.23,4.79,7,4.05,9.86-1.43,5.61-4.64,10.92-7.87,15.86-2,3.07-5.43,5.23-8.8,8.34a8.64,8.64,0,0,0,1.76,0c1.94-1.09,3.83-2.3,5.82-3.29,17-8.46,24.5-22.29,23.65-41.09-.31-6.89-.15-13.82.19-20.72C547.85,41.65,549.28,36.6,553.94,33.71ZM90,9.56c-6.71,10.81-16.55,11.75-27.33,9.73-5.19-1-10.33-2.2-15.53-3.14-21.83-4-36.28,6.3-39.93,28.34C6.9,46.64,6.94,48.86,6.8,51l1.42.43C12,39,16.68,27.43,33.34,29.41c-.76,1.75-2.54,2.44-3.79,3.68A52.59,52.59,0,0,0,13.79,68.42c-1.51,25.79,17.1,45.77,40.8,43.81C73.32,110.68,90.09,90.94,90,69.89c-3.77,5.34-6.73,10.7-10.81,15A72.46,72.46,0,0,1,64.63,96.63c-5.2,3.19-11.19,3.23-17.3.46A7.12,7.12,0,0,1,50,94.33c10.6-7.54,14.44-17.86,13.59-30.69-.64-9.67-.13-19.42-.13-29C82.24,31.88,91.89,22.91,90,9.56Zm156.6,4c-7.82,7.24-15.28,13.8-22.28,20.83A12.82,12.82,0,0,0,221,42.18c-.41,8.72.25,17.5-.34,26.2-.29,4.3-2.41,8.47-3.71,12.7l-2.11-.27a57.85,57.85,0,0,1-2.53-5.92c-4.86-15.66-1.11-29.69,8.47-42.43,3.8-5.05,8.08-9.75,12.14-14.6C219.05,25.67,208,36.05,202.25,51c-5.78,15.17-4.12,30.1,3.58,44.12S230.75,115.89,246.9,112c12.73-3.09,24-17.19,24.63-32.29-5.29,9.29-11.61,15.48-20.95,18-9.55,2.53-18,.64-25.63-5.45a5.42,5.42,0,0,1,.65-1.27,31,31,0,0,1,3.54-3.34c11.9-8.68,16.79-20.23,15.37-34.94-.73-7.55-.13-15.23-.13-24.84,8.75,11.8,18.38,15.69,30.29,9.7,7.44-3.74,12.66-9.45,13.36-18.78C272,34.89,259.1,25.71,246.64,13.57ZM467,93c-7.12.94-9.38-1.61-9.32-7.21.18-16.66,0-33.32.12-50,0-3,0-6.36,1.24-9s4.25-6.43,6.06-6.21c2.63.33,5.92,3.35,7,6,1.51,3.58,1.6,7.91,1.65,11.93.18,14,.24,28,0,42.06-.09,4.83-1.29,9.64-2.06,15l12.39,8.48c1.65-1.53,3.31-3,4.89-4.57s3.19-3.31,5.06-5.27c-8.94-2.36-8.94-2.36-8.94-11.47,0-2.64-.21-5.3,0-7.92,1.75-19.37-4.26-39.31,3.62-59l-11,9.5c-10.1-10.27-15.29-10.26-26.89-.19l-7.13-4.37c1,4.93,2.61,9.48,2.71,14.07.33,15.64.27,31.29,0,46.93-.06,4.41-1.27,8.81-2,13.76l11.12,7.61ZM108.62,55l-1.43-.82c1.63-11.84-3.37-24.35,4.85-35.53l-1.47-.89L100.08,27,93.3,22.89c.78,7.22,2,14.41,2.23,21.63.36,13.19.28,26.41,0,39.61-.09,4.12-1.44,8.22-2.44,13.56l7.73,7.19c3.4-2.91,6.44-5.51,8.47-7.26-.75-5.22-1.64-9.27-1.85-13.35-.3-5.67.39-11.42-.2-17-.68-6.48,2.29-10.21,8.52-13.59.66,2.85,1.65,5.23,1.69,7.63.16,10.56.06,21.12,0,31.69,0,9-3.94,15.94-11.58,20.84-4.84,3.1-9.52,6.45-14.27,9.69l.79,1.41c7.48-3.87,15-7.71,22.42-11.62,9.33-4.9,14-12.81,14.17-23.2.21-11,.19-21.94,0-32.9-.08-5.78-2.4-10.54-8-13.64Zm614.15,69.87,1.11,1.37c5.35-3.82,11.07-7.24,16-11.59,3.59-3.19,3.37-7.71.23-11.54s-7-3-10.39-.67c-3.82,2.61-7.12,6-10.84,8.77-2.71,2-5.67,4.87-8.64,5-3.33.17-7.87-1.44-9.8-3.9-1.1-1.42,1.12-6.89,3.31-9.08,3.66-3.68,8.91-5.73,12.71-9.31,5.68-5.36,11.81-10.77,15.72-17.36,6.27-10.58,3.31-25.67-4.84-32.24L715.46,54.69l-6.91-10.1-13.13,13,6.35-3.71c.34,3.08.76,5.19.79,7.3.06,6.69-.15,13.39,0,20.08.18,8.19-.32,15.87-5.17,23.23-4.37,6.65-.61,13.75,7.33,14.9,3.37.49,7.14-.63,10.51-1.71s6.07-3.38,9.32-4.35c2-.59,4.38.33,6.59.58-.8,1.9-1.25,4.1-2.5,5.65C727,121.6,724.76,123.1,722.77,124.82ZM384.43,43.32l-11.3,10.17L365.72,43c-4.39,3.77-7.93,6.79-11.47,9.82-.07.54-.14,1.09-.22,1.63,7.33-1.77,6.49,2.64,6.48,6.46,0,7.51.26,15-.12,22.53-.2,4.16-1.47,8.27-2.51,13.7l8.08,7.45,8.15-7.45c-.9-5.24-2-9.21-2.18-13.22-.34-6.08.27-12.21-.19-18.27-.45-5.83,1.67-9.66,8.07-12.68.86,3,2.22,5.65,2.3,8.35.28,9.54.15,19.08.14,28.63,0,5.77,1.75,10.68,7.25,14.58l11.14-11.16L399.38,92l-5.73.65c1.11-15.47-3.41-30.76,4.8-45.3l-1.6-.34-5.4,4.57ZM897.92,94.85c.43-.61.85-1.23,1.28-1.85-10,1.8-7.77-4.11-7.85-8.37-.13-7.11-.22-14.24,0-21.34.14-3.63,1.07-7.23,1.67-11l-6.75-8-9.53,8.48c5.65,6.5,2.58,14.11,3,21.14s1.86,15-6.79,19c-5.48-3.73-6.3-31.78-1.53-39.94l-6.91-7.73c-4.05,3.64-7.94,7.13-12.11,10.89l5.14.4c0,7,.18,13.64-.05,20.31-.21,6-.87,12.07-1.4,19l11.32,9L878.59,93l7.79,12.36ZM292.16,41.74c-3.62,2.34-7,5.1-10.81,6.83-3.56,1.6-4.52,3.68-4.53,7.42,0,13-.45,26-.72,39.07,5.09,2.47,11.4,5.53,17.88,8.69,3.74-2.23,8.07-4.5,12-7.31a7.64,7.64,0,0,0,3-5.14c.26-12,.21-24,0-36a6.08,6.08,0,0,0-2.34-4.22C302.08,47.85,297.2,44.94,292.16,41.74Zm318.42,62.8L623,93.38,630.43,105l12-10.81-.1-2.43c-6.68,3.75-7.12,0-6.95-3.84.6-13.75-2.47-27.74,3-41.5-6,4.08-11.09,1.51-16.26-.94-1.52-.72-3.57-1.49-5-1-4.62,1.52-9,3.59-13.83,5.57A59.1,59.1,0,0,0,607,57.27c4.16,6.15,4.13,11.27-.46,17.85C598.94,86,600.72,95.58,610.58,104.54Zm-454.22-61L135.22,55.75c5.26,4.28,5.64,30.57.86,40.76,2.24.88,4.91,1.25,6.62,2.73,7.63,6.58,13.59,3.58,19.48-2.59,2.6-2.72,5.76-4.89,8.67-7.31l-1.67-2c-2.34,1.92-4.82,3.68-7,5.79s-4.14,2.33-6.91.66c-6.16-3.72-7.17-10.82-1.86-16,5.77-5.59,11.61-11.1,16.83-16.08-2.84-3.21-5.24-5.61-7.27-8.28C160.68,50.39,158.7,47.09,156.36,43.58Zm248,53c1.42.51,2.53.62,3.25,1.21,11.45,9.59,19.87,3,28-5.17,1.22-1.22,2.38-2.51,3.57-3.76l-1.55-1.57c-2.35,2-4.5,4.31-7.13,5.77-1.71.95-4.52,1.48-6.16.72-6.94-3.2-7.87-10.6-2.27-16s11.55-11.06,16.26-15.55c-5-6.67-9.4-12.54-13.78-18.4L403.77,55.71C409,60.08,409.4,87.11,404.33,96.56ZM695,95.46c-2.68-2.85-7-5.39-6.93-7.71,1.1-23-4.11-46.48,3.73-70.2l-11.25,9.9-6.65-4.52c.89,6.27,2.34,12.58,2.55,18.93.41,12.56.32,25.15,0,37.72-.12,5.22-1.3,10.42-2.07,16.14l12.23,8.38C689.52,101.1,692.72,97.79,695,95.46ZM351.43,54.58,343.18,43.1l-8.8,8.42-8-8.4c-3.92,4.4-8.59,6.9-11.17,12.87l6.91-2.11c-.94,14.31,2.63,27.93-2.79,41.33l13.24,9c4.25-4.32,9.53-7.92,13.09-13l-1.58-1.63-6,4.12c-5.85-4.8-6.38-34.44-.66-39,2,2.39,4,4.79,6,7.16Zm311.83-4-7.85-7.47L647.77,50a104.44,104.44,0,0,1,.16,45.2l9.28,9.34,11.18-10.41-1.29-1.27c-5.82,1.14-6.07,1-6.09-5.32,0-8.71-.19-17.43.08-26.13C661.19,58.19,662.33,55,663.26,50.58Zm-10.74-13,1.66.64c6-4.43,7.31-11.93,11.74-18.45H655C654.15,25.89,653.33,31.75,652.52,37.61Z" transform="translate(-1.36 -1.38)"/><path d="M946.44,93.91l-11.69,10.54c-4.81-3.74-7-8.23-6.91-13.92.08-9.75.17-19.5-.12-29.24-.08-2.7-1.49-5.36-2.39-8.37-6.28,3.07-8.59,6.78-8.14,12.66.48,6.26-.15,12.6.2,18.87.22,3.81,1.37,7.56,2.35,12.64l-8.26,7.51-7.93-7.37c1-6,2.16-10.75,2.41-15.49.38-7.09.12-14.21.09-21.32,0-5.62,0-5.62-7.16-6.87L911.21,43l7.48,10.38,11.16-10,7.39,7.8,5-4.09c-6.23,14.91-2.4,30.18-2.87,45l7,.5Z" transform="translate(-1.36 -1.38)"/><path d="M798.48,14.71c11.06,3.05,20.45,6.31,30.12,8.14,10.23,1.93,19.64-.73,26.92-9.28-3.55,10.8-9.3,19.15-20.75,21.75-10.19,2.32-20,1.84-29.5-3.57-3.23-1.85-7.73-2.29-11.55-2-4.07.27-6.91,3.76-5.88,7.74.72,2.74,3.46,6.06,6,6.95,3.43,1.18,7.59.36,11.42.22,6.69-.25,13.41-1.25,20.05-.84,17.08,1,27.41,14.21,24.3,31-3.28,17.72-16.14,28.09-30.2,37.16-1.2.77-4.27-.38-5.92-1.48-5.2-3.46-9.79-4-15.42-.26-3.91,2.6-8.93,4-13.64,4.82-9.07,1.63-16.17-3.35-17.2-11.27s4.29-14.57,13.31-15.91c10-1.48,19.31,1.58,28.46,5.13A11.64,11.64,0,0,0,824.72,85c1.18-4.07-1-7.07-5.81-7s-9.66,1.25-14.51,1.6c-6.06.43-12.19,1-18.22.61-7.55-.56-13.83-4-16-11.91-2.13-7.69-.23-14.44,6.16-19.69,1.18-1,2.7-2.3,2.85-3.61C780.79,31.15,790.37,22.56,798.48,14.71Zm30,87c3.66-5.37,7.83-10,10.27-15.37C846,70.28,837,57,819.39,57.38c-6.67.16-13.33,1.25-20,1.83-7.57.65-15.09,1-19.83-7-3.79,7.46-.62,13.36,7.77,13.42,9.69.07,19.39-1.2,29.07-2.06,8.94-.79,15.42,1.92,18.26,7.92,3,6.35,1,13.24-5.79,19.51-2.42,2.23-5,4.32-7.81,6.79ZM799.34,106c-.1-1-.19-2.09-.28-3.13-6.08-1-12.13-2.22-18.25-2.83-3.67-.36-7.24,1.17-7.16,5.51s4,5.77,7.43,5.17C787.25,109.65,793.26,107.64,799.34,106Z" transform="translate(-1.36 -1.38)"/><path d="M553.94,33.71c-4.66,2.89-6.09,7.94-6.36,13.29-.34,6.9-.5,13.83-.19,20.72.85,18.8-6.65,32.63-23.65,41.09-2,1-3.88,2.2-5.82,3.29a8.64,8.64,0,0,1-1.76,0c3.37-3.11,6.78-5.27,8.8-8.34,3.23-4.94,6.44-10.25,7.87-15.86.74-2.89-1.59-7.63-4.05-9.86-1.42-1.3-5.86.71-8.74,1.2.15-7.34,5.36-12.28,15-12.36.17-12.21,1-24.47,13.94-34.42-18.08,1.3-32-1-30.33-23.29,7.25,10.41,17.08,9.74,27.16,9A211.08,211.08,0,0,1,569.55,18c11.28.5,19,6.52,23.3,16.82,6.85,16.47,7.2,33.43,4.37,50.88-1.53,9.42-5.07,16.33-14.45,19.49a13.92,13.92,0,0,0-3.71,2.09c-6.24,4.64-12.39,5.7-20.22,2.83-10.92-4-22.06-1.67-32.66,2.77-2.38,1-4.74,2-7.7,2,1.68-1,3.39-2,5-3,5.29-3.39,10.81-6.49,15.78-10.3,9.46-7.25,14-16.87,13.82-29C552.92,59.56,553.62,46.63,553.94,33.71Zm2.91,16.2c.15,9.77,4.59,14.4,14.46,13.77,3.49-.22,7-1.85,10.28-3.18a5.07,5.07,0,0,0,2.63-3c3-11.3-7.24-25.24-19-25.57-1.86-.05-4.9,2-5.48,3.79C558.18,40.26,557.72,45.16,556.85,49.91ZM552.16,95.4c9.1-3.6,17,0,25.11,4.41,1.44-3.68,2.79-6.82,3.9-10,3.64-10.57,1.25-14.28-10-14.69a28.27,28.27,0,0,0-10.57,2.08c-1.71.65-3.25,2.86-4,4.72C554.9,86,553.79,90.24,552.16,95.4Zm32.16-32.63c-9,5.95-17.79,6.21-26.79.28V74.33c9-3.93,17.62-3.82,26.79,1.09Z" transform="translate(-1.36 -1.38)"/><path d="M90,9.56c1.85,13.35-7.8,22.32-26.54,25,0,9.63-.51,19.38.13,29.05.85,12.83-3,23.15-13.59,30.69a7.12,7.12,0,0,0-2.71,2.76c6.11,2.77,12.1,2.73,17.3-.46A72.46,72.46,0,0,0,79.17,84.89c4.08-4.3,7-9.66,10.81-15,.11,21-16.66,40.79-35.39,42.34-23.7,2-42.31-18-40.8-43.81A52.59,52.59,0,0,1,29.55,33.09c1.25-1.24,3-1.93,3.79-3.68C16.68,27.43,12,39,8.22,51.47L6.8,51c.14-2.18.1-4.4.45-6.55,3.65-22,18.1-32.3,39.93-28.34,5.2.94,10.34,2.17,15.53,3.14C73.49,21.31,83.33,20.37,90,9.56ZM40.53,29.2c-18.22,13.32-20,47.7-3.36,61.72C43.24,70.45,38.47,50.32,40.53,29.2Zm12.23,3c0,9.3-.49,18.45.11,27.52.87,13.14-1.56,24.63-12.82,32.89-.24.17-.21.72-.59,2.22,2-.15,4.15.34,5.33-.49,8.86-6.23,15.07-14,14.71-25.69-.31-10.13-.23-20.29,0-30.43C59.65,33.78,58.22,31.7,52.76,32.16Z" transform="translate(-1.36 -1.38)"/><path d="M246.64,13.57C259.1,25.71,272,34.89,288,18.74c-.7,9.33-5.92,15-13.36,18.78-11.91,6-21.54,2.1-30.29-9.7,0,9.61-.6,17.29.13,24.84,1.42,14.71-3.47,26.26-15.37,34.94a31,31,0,0,0-3.54,3.34,5.42,5.42,0,0,0-.65,1.27c7.64,6.09,16.08,8,25.63,5.45,9.34-2.49,15.66-8.68,20.95-18-.6,15.1-11.9,29.2-24.63,32.29-16.15,3.91-33.37-2.84-41.07-16.84S196.47,66.19,202.25,51c5.7-15,16.8-25.35,30.71-33.16-4.06,4.85-8.34,9.55-12.14,14.6-9.58,12.74-13.33,26.77-8.47,42.43a57.85,57.85,0,0,0,2.53,5.92l2.11.27c1.3-4.23,3.42-8.4,3.71-12.7.59-8.7-.07-17.48.34-26.2a12.82,12.82,0,0,1,3.32-7.78C231.36,27.37,238.82,20.81,246.64,13.57ZM223,89.52c5.49-7.23,14-13.73,15.63-21.64,2.61-12.87.7-26.66.7-40.06l-1.84-.6c-1.21,3.45-3,6.83-3.49,10.39a65.89,65.89,0,0,0,0,14c1.1,12.81-1.73,23.78-13.31,31.14C217.38,84.78,217.92,86.81,223,89.52Z" transform="translate(-1.36 -1.38)"/><path d="M467,93l-11.48,10.26-11.12-7.61c.77-5,2-9.35,2-13.76.24-15.64.3-31.29,0-46.93-.1-4.59-1.72-9.14-2.71-14.07l7.13,4.37c11.6-10.07,16.79-10.08,26.89.19l11-9.5c-7.88,19.66-1.87,39.6-3.62,59-.24,2.62,0,5.28,0,7.92,0,9.11,0,9.11,8.94,11.47-1.87,2-3.42,3.66-5.06,5.27s-3.24,3-4.89,4.57l-12.39-8.48c.77-5.38,2-10.19,2.06-15,.27-14,.21-28,0-42.06-.05-4-.14-8.35-1.65-11.93-1.12-2.67-4.41-5.69-7-6-1.81-.22-4.83,3.6-6.06,6.21s-1.22,5.94-1.24,9c-.1,16.66.06,33.32-.12,50C457.66,91.38,459.92,93.93,467,93Z" transform="translate(-1.36 -1.38)"/><path d="M108.62,55,121,43.53c5.58,3.1,7.9,7.86,8,13.64.18,11,.2,21.94,0,32.9-.2,10.39-4.84,18.3-14.17,23.2-7.45,3.91-14.94,7.75-22.42,11.62l-.79-1.41c4.75-3.24,9.43-6.59,14.27-9.69,7.64-4.9,11.54-11.79,11.58-20.84,0-10.57.14-21.13,0-31.69,0-2.4-1-4.78-1.69-7.63-6.23,3.38-9.2,7.11-8.52,13.59.59,5.63-.1,11.38.2,17,.21,4.08,1.1,8.13,1.85,13.35-2,1.75-5.07,4.35-8.47,7.26l-7.73-7.19c1-5.34,2.35-9.44,2.44-13.56.28-13.2.36-26.42,0-39.61-.2-7.22-1.45-14.41-2.23-21.63L100.08,27l10.49-9.3,1.47.89c-8.22,11.18-3.22,23.69-4.85,35.53Z" transform="translate(-1.36 -1.38)"/><path d="M722.77,124.82c2-1.72,4.25-3.22,5.87-5.23,1.25-1.55,1.7-3.75,2.5-5.65-2.21-.25-4.63-1.17-6.59-.58-3.25,1-6.08,3.32-9.32,4.35s-7.14,2.2-10.51,1.71c-7.94-1.15-11.7-8.25-7.33-14.9,4.85-7.36,5.35-15,5.17-23.23-.15-6.69.06-13.39,0-20.08,0-2.11-.45-4.22-.79-7.3l-6.35,3.71,13.13-13,6.91,10.1L727.29,44.3c8.15,6.57,11.11,21.66,4.84,32.24-3.91,6.59-10,12-15.72,17.36-3.8,3.58-9,5.63-12.71,9.31-2.19,2.19-4.41,7.66-3.31,9.08,1.93,2.46,6.47,4.07,9.8,3.9,3-.16,5.93-3,8.64-5,3.72-2.78,7-6.16,10.84-8.77,3.37-2.29,7.27-3.14,10.39.67s3.36,8.35-.23,11.54c-4.88,4.35-10.6,7.77-16,11.59Zm-2.69-69.11c-4.94,2.37-6.72,6.18-6.4,11.7.42,7.42.1,14.89.1,23.48C724.77,80,726.94,65.48,720.08,55.71Z" transform="translate(-1.36 -1.38)"/><path d="M384.43,43.32l7,8.29,5.4-4.57,1.6.34c-8.21,14.54-3.69,29.83-4.8,45.3l5.73-.65,1.26,1.33L389.5,104.52c-5.5-3.9-7.25-8.81-7.25-14.58,0-9.55.14-19.09-.14-28.63-.08-2.7-1.44-5.36-2.3-8.35-6.4,3-8.52,6.85-8.07,12.68.46,6.06-.15,12.19.19,18.27.22,4,1.28,8,2.18,13.22L366,104.58l-8.08-7.45c1-5.43,2.31-9.54,2.51-13.7.38-7.49.09-15,.12-22.53,0-3.82.85-8.23-6.48-6.46.08-.54.15-1.09.22-1.63,3.54-3,7.08-6.05,11.47-9.82l7.41,10.5Z" transform="translate(-1.36 -1.38)"/><path d="M897.92,94.85l-11.54,10.54L878.59,93l-11.11,11.75-11.32-9c.53-6.94,1.19-13,1.4-19,.23-6.67.05-13.36.05-20.31l-5.14-.4c4.17-3.76,8.06-7.25,12.11-10.89l6.91,7.73c-4.77,8.16-4,36.21,1.53,39.94,8.65-4,7.25-11.88,6.79-19s2.62-14.64-3-21.14l9.53-8.48,6.75,8c-.6,3.77-1.53,7.37-1.67,11-.26,7.1-.17,14.23,0,21.34.08,4.26-2.12,10.17,7.85,8.37C898.77,93.62,898.35,94.24,897.92,94.85Z" transform="translate(-1.36 -1.38)"/><path d="M292.16,41.74c5,3.2,9.92,6.11,14.54,9.37A6.08,6.08,0,0,1,309,55.33c.18,12,.23,24,0,36a7.64,7.64,0,0,1-3,5.14c-3.94,2.81-8.27,5.08-12,7.31-6.48-3.16-12.79-6.22-17.88-8.69.27-13.07.7-26.07.72-39.07,0-3.74,1-5.82,4.53-7.42C285.18,46.84,288.54,44.08,292.16,41.74Zm5.76,51.14c0-9.67,0-18.95,0-28.23,0-7.66-1.43-9.14-10-10.14,0,8.73.54,17.47-.17,26.11C287.18,88,290.18,91.46,297.92,92.88Z" transform="translate(-1.36 -1.38)"/><path d="M610.58,104.54c-9.86-9-11.64-18.55-4.08-29.42,4.59-6.58,4.62-11.7.46-17.85A59.1,59.1,0,0,1,603.32,50c4.79-2,9.21-4.05,13.83-5.57,1.4-.46,3.45.31,5,1,5.17,2.45,10.24,5,16.26.94-5.52,13.76-2.45,27.75-3,41.5-.17,3.8.27,7.59,6.95,3.84l.1,2.43-12,10.81L623,93.38Zm6.75-11.26c8.67-3.44,7.29-10.76,6.09-16.66-.58-2.89-5.65-4.87-9.27-7.71C610.89,78.68,610,86.53,617.33,93.28Zm5.9-23.43c2-12.45-.24-15-14.71-16.51C612,60.18,613.26,68.5,623.23,69.85Z" transform="translate(-1.36 -1.38)"/><path d="M156.36,43.58c2.34,3.51,4.32,6.81,6.64,9.86,2,2.67,4.43,5.07,7.27,8.28-5.22,5-11.06,10.49-16.83,16.08-5.31,5.14-4.3,12.24,1.86,16,2.77,1.67,4.65,1.53,6.91-.66s4.63-3.87,7-5.79l1.67,2c-2.91,2.42-6.07,4.59-8.67,7.31-5.89,6.17-11.85,9.17-19.48,2.59-1.71-1.48-4.38-1.85-6.62-2.73,4.78-10.19,4.4-36.48-.86-40.76Zm3.4,23.1c-2.93-4.21-5.64-8.12-8.85-12.76V75Z" transform="translate(-1.36 -1.38)"/><path d="M404.33,96.56c5.07-9.45,4.66-36.48-.56-40.85l20.77-11.93c4.38,5.86,8.78,11.73,13.78,18.4-4.71,4.49-10.53,10-16.26,15.55s-4.67,12.83,2.27,16c1.64.76,4.45.23,6.16-.72,2.63-1.46,4.78-3.8,7.13-5.77l1.55,1.57c-1.19,1.25-2.35,2.54-3.57,3.76-8.15,8.12-16.57,14.76-28,5.17C406.86,97.18,405.75,97.07,404.33,96.56Zm14.8-21.26c3.63-3.4,6.23-5.85,9.1-8.55l-8.08-12.19-1,.6Z" transform="translate(-1.36 -1.38)"/><path d="M695,95.46c-2.27,2.33-5.47,5.64-8.37,8.64l-12.23-8.38c.77-5.72,2-10.92,2.07-16.14.3-12.57.39-25.16,0-37.72-.21-6.35-1.66-12.66-2.55-18.93l6.65,4.52,11.25-9.9c-7.84,23.72-2.63,47.16-3.73,70.2C688,90.07,692.31,92.61,695,95.46Z" transform="translate(-1.36 -1.38)"/><path d="M351.43,54.58l-8.11,7.28c-2-2.37-4-4.77-6-7.16-5.72,4.58-5.19,34.22.66,39l6-4.12,1.58,1.63c-3.56,5.09-8.84,8.69-13.09,13l-13.24-9c5.42-13.4,1.85-27,2.79-41.33L315.18,56c2.58-6,7.25-8.47,11.17-12.87l8,8.4,8.8-8.42Z" transform="translate(-1.36 -1.38)"/><path d="M663.26,50.58c-.93,4.43-2.07,7.61-2.17,10.83-.27,8.7-.12,17.42-.08,26.13,0,6.28.27,6.46,6.09,5.32l1.29,1.27-11.18,10.41-9.28-9.34a104.44,104.44,0,0,0-.16-45.2l7.64-6.89Z" transform="translate(-1.36 -1.38)"/><path d="M652.52,37.61c.81-5.86,1.63-11.72,2.47-17.81h10.93c-4.43,6.52-5.74,14-11.74,18.45Z" transform="translate(-1.36 -1.38)"/><path class="cls-1" d="M828.49,101.73l-7.43-3.89c2.84-2.47,5.39-4.56,7.81-6.79,6.78-6.27,8.79-13.16,5.79-19.51-2.84-6-9.32-8.71-18.26-7.92-9.68.86-19.38,2.13-29.07,2.06-8.39-.06-11.56-6-7.77-13.42,4.74,8,12.26,7.6,19.83,7,6.67-.58,13.33-1.67,20-1.83,17.65-.4,26.64,12.9,19.37,29C836.32,91.75,832.15,96.36,828.49,101.73Z" transform="translate(-1.36 -1.38)"/><path class="cls-1" d="M799.34,106c-6.08,1.63-12.09,3.64-18.26,4.72-3.44.6-7.35-.74-7.43-5.17s3.49-5.87,7.16-5.51c6.12.61,12.17,1.85,18.25,2.83C799.15,103.92,799.24,105,799.34,106Z" transform="translate(-1.36 -1.38)"/><path class="cls-1" d="M556.85,49.91c.87-4.75,1.33-9.65,2.85-14.19.58-1.74,3.62-3.84,5.48-3.79,11.8.33,22,14.27,19,25.57a5.07,5.07,0,0,1-2.63,3c-3.33,1.33-6.79,3-10.28,3.18C561.44,64.31,557,59.68,556.85,49.91Z" transform="translate(-1.36 -1.38)"/><path class="cls-1" d="M552.16,95.4c1.63-5.16,2.74-9.45,4.39-13.52.75-1.86,2.29-4.07,4-4.72a28.27,28.27,0,0,1,10.57-2.08c11.3.41,13.69,4.12,10,14.69-1.11,3.22-2.46,6.36-3.9,10C569.17,95.45,561.26,91.8,552.16,95.4Z" transform="translate(-1.36 -1.38)"/><path class="cls-1" d="M584.32,62.77V75.42c-9.17-4.91-17.77-5-26.79-1.09V63.05C566.53,69,575.28,68.72,584.32,62.77Z" transform="translate(-1.36 -1.38)"/><path class="cls-1" d="M40.53,29.2c-2.06,21.12,2.71,41.25-3.36,61.72C20.51,76.9,22.31,42.52,40.53,29.2Z" transform="translate(-1.36 -1.38)"/><path class="cls-1" d="M52.76,32.16c5.46-.46,6.89,1.62,6.78,6-.27,10.14-.35,20.3,0,30.43.36,11.72-5.85,19.46-14.71,25.69-1.18.83-3.28.34-5.33.49.38-1.5.35-2.05.59-2.22,11.26-8.26,13.69-19.75,12.82-32.89C52.27,50.61,52.76,41.46,52.76,32.16Z" transform="translate(-1.36 -1.38)"/><path class="cls-1" d="M223,89.52c-5-2.71-5.57-4.74-2.33-6.8C232.2,75.36,235,64.39,233.93,51.58a65.89,65.89,0,0,1,0-14c.46-3.56,2.28-6.94,3.49-10.39l1.84.6c0,13.4,1.91,27.19-.7,40.06C237,75.79,228.44,82.29,223,89.52Z" transform="translate(-1.36 -1.38)"/><path class="cls-1" d="M720.08,55.71c6.86,9.77,4.69,24.24-6.3,35.18,0-8.59.32-16.06-.1-23.48C713.36,61.89,715.14,58.08,720.08,55.71Z" transform="translate(-1.36 -1.38)"/><path class="cls-1" d="M297.92,92.88c-7.74-1.42-10.74-4.9-10.13-12.26.71-8.64.17-17.38.17-26.11,8.53,1,10,2.48,10,10.14C297.93,73.93,297.92,83.21,297.92,92.88Z" transform="translate(-1.36 -1.38)"/><path class="cls-1" d="M617.33,93.28c-7.37-6.75-6.44-14.6-3.18-24.37,3.62,2.84,8.69,4.82,9.27,7.71C624.62,82.52,626,89.84,617.33,93.28Z" transform="translate(-1.36 -1.38)"/><path class="cls-1" d="M623.23,69.85c-10-1.35-11.28-9.67-14.71-16.51C623,54.87,625.24,57.4,623.23,69.85Z" transform="translate(-1.36 -1.38)"/><path class="cls-1" d="M159.76,66.68,150.91,75v-21C154.12,58.56,156.83,62.47,159.76,66.68Z" transform="translate(-1.36 -1.38)"/><path class="cls-1" d="M419.13,75.3V55.16l1-.6,8.08,12.19C425.36,69.45,422.76,71.9,419.13,75.3Z" transform="translate(-1.36 -1.38)"/></svg>